<?xml version="1.0" encoding="UTF-8"?>
<svg xmlns="http://www.w3.org/2000/svg" xmlns:xlink="http://www.w3.org/1999/xlink" width="169px" height="150px" viewBox="0 0 432 384" version="1.1">
<g id="surface1">
<path style=" stroke:none;fill-rule:nonzero;fill:rgb(0%,0%,0%);fill-opacity:1;" d="M 0 18 C 0 8.023438 8.023438 0 18 0 L 52.125 0 C 68.625 0 83.25 9.601562 90.074219 24 L 398.324219 24 C 418.050781 24 432.449219 42.75 427.273438 61.800781 L 396.523438 176.023438 C 390.148438 199.574219 368.773438 216 344.398438 216 L 128.023438 216 L 132.074219 237.375 C 133.726562 245.851562 141.148438 252 149.773438 252 L 366 252 C 375.976562 252 384 260.023438 384 270 C 384 279.976562 375.976562 288 366 288 L 149.773438 288 C 123.824219 288 101.550781 269.550781 96.75 244.125 L 58.050781 40.875 C 57.523438 38.023438 55.050781 36 52.125 36 L 18 36 C 8.023438 36 0 27.976562 0 18 Z M 96 348 C 96 328.117188 112.117188 312 132 312 C 151.882812 312 168 328.117188 168 348 C 168 367.882812 151.882812 384 132 384 C 112.117188 384 96 367.882812 96 348 Z M 348 312 C 367.882812 312 384 328.117188 384 348 C 384 367.882812 367.882812 384 348 384 C 328.117188 384 312 367.882812 312 348 C 312 328.117188 328.117188 312 348 312 Z M 348 312 "/>
</g>
</svg>
